<svg width="58" height="58" viewBox="0 0 58 58" fill="none" xmlns="http://www.w3.org/2000/svg">
<circle cx="29" cy="29" r="27.5" stroke="white" stroke-width="3"/>
<path d="M30.7611 11.96C29.787 10.9811 28.2051 10.9811 27.231 11.96L14.7628 24.4895C13.7887 25.4683 13.7887 27.058 14.7628 28.0369C15.7369 29.0158 17.3188 29.0158 18.2929 28.0369L26.5063 19.7753V43.8006C26.5063 45.1867 27.6207 46.3065 29 46.3065C30.3793 46.3065 31.4936 45.1867 31.4936 43.8006V19.7831L39.7071 28.0291C40.6812 29.0079 42.2631 29.0079 43.2372 28.0291C44.2112 27.0502 44.2112 25.4605 43.2372 24.4817L30.7689 11.9521L30.7611 11.96Z" fill="white"/>
</svg>
