<svg width="58" height="58" viewBox="0 0 58 58" fill="none" xmlns="http://www.w3.org/2000/svg">
<circle cx="29" cy="29" r="27.5" stroke="black" stroke-width="3"/>
<path d="M30.4067 12.3127L30.7611 12.6689L30.7689 12.661L42.8827 24.8343C43.6627 25.6181 43.6627 26.8926 42.8827 27.6764C42.1041 28.4588 40.8401 28.4588 40.0615 27.6764L40.0613 27.6762L31.8479 19.4302L30.9936 18.5726V19.7831V43.8006C30.9936 44.9128 30.1008 45.8065 29 45.8065C27.8991 45.8065 27.0063 44.9128 27.0063 43.8006V19.7753V18.5631L26.1517 19.4227L17.9384 27.6842C17.9384 27.6843 17.9383 27.6843 17.9383 27.6844C17.1596 28.4667 15.8958 28.4666 15.1172 27.6842C14.3372 26.9004 14.3372 25.626 15.1172 24.8422L27.5855 12.3127C28.3641 11.5302 29.6281 11.5302 30.4067 12.3127Z" fill="black" stroke="black"/>
</svg>
