<svg width="58" height="57" viewBox="0 0 58 57" fill="none" xmlns="http://www.w3.org/2000/svg">
<path d="M8.28571 0C3.71563 0 0 3.65156 0 8.14286V48.8571C0 53.3484 3.71563 57 8.28571 57H49.7143C54.2844 57 58 53.3484 58 48.8571V8.14286C58 3.65156 54.2844 0 49.7143 0H8.28571ZM46.7496 10.6875L33.3112 25.7772L49.1187 46.3125H36.742L27.058 33.8565L15.9629 46.3125H9.81339L24.1839 30.1667L9.02366 10.6875H21.7112L30.4759 22.0748L40.6 10.6875H46.7496ZM41.8558 42.6991L19.8598 14.11H16.196L38.4379 42.6991H41.8429H41.8558Z" fill="white" fill-opacity="0.4"/>
</svg>
