<svg width="58" height="57" viewBox="0 0 58 57" fill="none" xmlns="http://www.w3.org/2000/svg">
<path d="M25.1679 22.8636C24.4138 23.359 23.7665 23.9955 23.2628 24.7368C22.7591 25.4781 22.4089 26.3096 22.2321 27.1839C21.8752 28.9495 22.2467 30.7822 23.2647 32.2788C24.2828 33.7753 25.8641 34.8131 27.6608 35.1639C29.4574 35.5147 31.3223 35.1496 32.8451 34.1491C34.3679 33.1486 35.4239 31.5946 35.7808 29.8289C36.1377 28.0632 35.7663 26.2305 34.7482 24.7339C33.7301 23.2374 32.1488 22.1996 30.3522 21.8488C28.5555 21.4981 26.6907 21.8631 25.1679 22.8636ZM43.5906 14.1609C42.9174 13.4993 42.1018 12.9777 41.2085 12.6342C38.8652 11.7308 33.7513 11.769 30.45 11.8071C29.9192 11.8071 29.4272 11.8199 29 11.8199C28.5728 11.8199 28.0679 11.8199 27.5241 11.8071C24.2228 11.769 19.1348 11.7181 16.7915 12.6342C15.8982 12.9777 15.0955 13.4993 14.4094 14.1609C13.7232 14.8225 13.2054 15.6241 12.8558 16.502C11.9366 18.8049 11.9884 23.8433 12.0143 27.0877C12.0143 27.6094 12.0272 28.0929 12.0272 28.5C12.0272 28.9071 12.0272 29.3906 12.0143 29.9123C11.9884 33.1567 11.9366 38.1951 12.8558 40.498C13.2054 41.3759 13.7362 42.1647 14.4094 42.8391C15.0826 43.5134 15.8982 44.0223 16.7915 44.3659C19.1348 45.2692 24.2487 45.231 27.55 45.1929C28.0808 45.1929 28.5728 45.1801 29 45.1801C29.4272 45.1801 29.9321 45.1801 30.4759 45.1929C33.7772 45.231 38.8652 45.2819 41.2085 44.3659C42.1018 44.0223 42.9045 43.5007 43.5906 42.8391C44.2768 42.1775 44.7946 41.3759 45.1442 40.498C46.0763 38.2078 46.0246 33.1949 45.9857 29.9377C45.9857 29.4033 45.9728 28.9071 45.9728 28.4873C45.9728 28.0674 45.9728 27.5839 45.9857 27.0368C46.0246 23.7924 46.0763 18.7795 45.1442 16.4766C44.7946 15.5987 44.2638 14.8098 43.5906 14.1355V14.1609ZM34.9036 19.8228C37.2453 21.3615 38.8691 23.7514 39.4178 26.4668C39.9665 29.1821 39.3952 32.0004 37.8295 34.3018C37.0542 35.4413 36.0581 36.4196 34.8982 37.1808C33.7382 37.942 32.437 38.4712 31.0689 38.7382C28.3059 39.2775 25.4381 38.716 23.0964 37.1772C20.7547 35.6402 19.1302 33.2519 18.5803 30.5377C18.0303 27.8236 18.6001 25.0059 20.1641 22.7046C21.7281 20.4032 24.1583 18.8067 26.92 18.2663C29.6818 17.7258 32.5489 18.2857 34.8906 19.8228H34.9036ZM38.6839 19.6574C38.2826 19.3902 37.9589 19.0085 37.7647 18.5632C37.5705 18.1179 37.5317 17.6344 37.6223 17.1509C37.7129 16.6674 37.9589 16.2475 38.2955 15.904C38.6321 15.5605 39.0853 15.3315 39.5643 15.2424C40.0433 15.1533 40.5482 15.1915 41.0013 15.3824C41.4545 15.5732 41.8429 15.8786 42.1147 16.273C42.3866 16.6674 42.529 17.1382 42.529 17.6217C42.529 17.9397 42.4643 18.2578 42.3478 18.5504C42.2313 18.8431 42.0371 19.1103 41.817 19.3393C41.5969 19.5683 41.312 19.7464 41.0143 19.8737C40.7165 20.0009 40.3929 20.0645 40.0692 20.0645C39.5772 20.0645 39.0982 19.9246 38.6969 19.6574H38.6839ZM58 8.14286C58 3.65156 54.2844 0 49.7143 0H8.28571C3.71563 0 0 3.65156 0 8.14286V48.8571C0 53.3484 3.71563 57 8.28571 57H49.7143C54.2844 57 58 53.3484 58 48.8571V8.14286ZM46.2188 45.4219C43.7978 47.8011 40.8589 48.5518 37.5446 48.7172C34.1268 48.908 23.8732 48.908 20.4554 48.7172C17.1411 48.5518 14.2022 47.8011 11.7812 45.4219C9.36027 43.0426 8.59643 40.1545 8.44107 36.8973C8.24687 33.5384 8.24687 23.4616 8.44107 20.1027C8.60937 16.8455 9.36027 13.9574 11.7812 11.5781C14.2022 9.19888 17.154 8.44821 20.4554 8.29554C23.8732 8.10469 34.1268 8.10469 37.5446 8.29554C40.8589 8.46094 43.7978 9.19888 46.2188 11.5781C48.6397 13.9574 49.4036 16.8455 49.5589 20.1027C49.7531 23.4489 49.7531 33.5129 49.5589 36.8846C49.3906 40.1417 48.6397 43.0299 46.2188 45.4092V45.4219Z" fill="white" fill-opacity="0.4"/>
</svg>
