<svg width="58" height="57" viewBox="0 0 58 57" fill="none" xmlns="http://www.w3.org/2000/svg">
<path d="M8.28571 0C3.71563 0 0 3.65156 0 8.14286V48.8571C0 53.3484 3.71563 57 8.28571 57H20.9991V38.4496H14.1634V28.5H20.9991V24.2123C20.9991 13.1304 26.1 7.99018 37.1821 7.99018C39.2795 7.99018 42.9045 8.39732 44.3933 8.80446V17.8125C43.6165 17.7362 42.2571 17.6853 40.5612 17.6853C35.1237 17.6853 33.0263 19.7083 33.0263 24.9629V28.5H43.8496L41.9853 38.4496H33.0134V57H49.7143C54.2844 57 58 53.3484 58 48.8571V8.14286C58 3.65156 54.2844 0 49.7143 0H8.28571Z" fill="white" fill-opacity="0.4"/>
</svg>
